<svg xmlns="http://www.w3.org/2000/svg" width="731" height="1037" fill="none"><g clip-path="url(#a)"><mask id="b" width="731" height="1037" x="0" y="0" maskUnits="userSpaceOnUse" style="mask-type:luminance"><path fill="#fff" d="M0 0h731v1037H0V0Z"/></mask><g mask="url(#b)"><path fill="#EEE0EE" d="M145.86 479.91c2.805-5.27 3.4-10.982 3.434-16.779.102-11.798.136-23.596.289-35.411a13.485 13.485 0 0 1 8.211-12.58c7.837-3.689 15.64-7.565 24.82-7.293 4.964.17 9.826-1.598 14.603-3.162 10.999-3.604 22.729-3.451 33.864-6.511 22.95-6.29 46.614-9.418 69.666-15.283 11.135-2.822 22.525-2.686 33.796-3.451 27.71-1.887 55.488-3.213 83.249-4.811 18.87-1.105 37.74-2.278 56.627-3.502 26.248-1.666 52.462-3.706 78.727-5.032 19.635-.986 39.219-2.873 58.905-3.009 4.828-.034 9.656-1.037 14.535-.969 1.972.034 3.825.119 5.542 1.19-.374 3.757 1.785 6.953 2.329 10.506a9.578 9.578 0 0 0-3.961 7.582c-.425 9.129-1.19 18.241-1.037 27.404-.04 1.329.2 2.651.703 3.881a9.497 9.497 0 0 0 2.221 3.259l-.17 7.038c-1.36.102-2.754.153-2.703 2.091.306 10.71-1.309 21.709 4.42 31.671l1.938 7.174 8.551 31.586c.272 1.071.68 1.921 1.802 2.278 4.556 4.437 9.112 8.891 12.563 14.314-1.156-.153-2.346-.221-3.485-.476a2483.82 2483.82 0 0 1-22.899-4.93c-1.479-.323-2.907-.952-2.873 1.632.102 9.452-.102 18.938.204 28.39.153 4.964 3.791 7.276 8.585 6.188 5.61-1.275 11.152-2.975 16.83-3.638 5.695-.68 11.679-2.261 17.136 1.326-.136 1.836-.408 3.655.663 5.355-8.602.34-8.585.34-10.574 8.772-3.179 13.566-4.624 27.421-6.562 41.191a2039.203 2039.203 0 0 1-8.721 56.61c-1.156 6.783-.289 13.753-2.89 20.383a16700.176 16700.176 0 0 0-43.384 111.894c-3.774 9.877-9.282 17.884-18.241 23.868-8.602 5.746-16.507 12.546-24.769 18.819-15.198 11.56-30.09 23.596-45.747 34.544-18.445 12.903-39.814 20.009-60.588 28.118-22.355 8.738-45.73 11.441-69.564 10.285a36.84 36.84 0 0 1-20.179-7.344c-5.338-3.893-9.18-9.248-14.042-13.583-9.095-8.126-19.04-7.786-27.54.901-2.55 2.567-4.386 5.61-6.205 8.67-5.015 8.551-7.412 9.639-17.034 6.732-8.874-2.686-17.952-4.505-26.826-7.31-5.61-1.785-10.829-3.57-14.28-8.007-10.149-13.005-20.978-25.432-30.209-39.219-13.294-19.89-25.415-40.29-33.218-63.07-1.122-3.264-3.128-5.338-6.817-5.185-1.955-14.45-3.859-28.9-5.882-43.35-2.006-14.11-4.658-28.135-5.984-42.33-.612-6.426-2.465-12.716-1.751-19.482.425-3.74-2.363-7.99-2.023-12.342 13.549 1.02 26.996 2.992 40.562 3.961 16.915 1.224 33.762 3.281 50.762 3.196 11.152-.051 19.04-4.335 24.701-14.11a245.059 245.059 0 0 0 22.61-53.516c3.757-12.784 6.069-25.942 9.69-38.743 2.839-10.081 9.061-12.784 17.629-10.285 4.709 1.36 7.905 5.151 10.2 9.35 4.437 8.058 7.769 16.66 10.438 25.466 8.687 28.73 20.74 55.726 38.879 79.866 4.947 6.562 10.506 11.203 18.632 13.175 13.43 3.264 27.115 4.148 40.8 4.386 28.866.51 57.749.884 86.564-1.53 11.186-.918 22.117-3.536 31.603-10.302 12.291-8.789 17.901-21.76 21.641-35.598 5.525-20.519 10.761-41.174 14.076-62.22.714-4.505 2.737-8.891 2.55-13.311-.17-4.063 1.19-6.97 4.335-8.058 7.497-2.584 8.67-8.245 8.738-14.943.068-7.718.255-15.419.306-23.12.051-6.698-1.139-9.112-8.211-11.356-6.681-2.125-13.617-2.431-20.57-2.771-6.987-.34-13.957-1.156-20.961-1.768.187-1.564 1.105-1.564 1.989-1.802 6.273-1.649 6.596-2.04 1.836-6.256-7.208-6.426-14.79-12.444-21.93-19.04-5.831-5.406-13.481-4.828-21.25-3.009 10.234 12.852 22.1 22.865 36.805 29.733-9.384-.731-18.734-.629-27.88-2.669 2.856-.578 5.729-.85 8.755-1.989-1.989-2.414-3.468-4.675-5.372-6.477-4.301-4.08-9.129-7.616-13.175-11.917-5.61-6.052-11.951-8.738-20.315-7.871-7.106.731-7.463.629-4.76 7.208l-.425.408c-6.001-4.692-12.801-6.035-20.383-5.78-6.749.255-13.158 1.921-19.601 3.366-29.257 6.579-58.225 14.501-88.06 18.292-7.225.918-10.438 5.1-10.37 12.478.034 4.539-2.142 8.16-6.426 9.299-12.58 3.315-24.99 7.616-38.42 5.729-2.669-.374-5.338-1.19-8.228-1.02-8.126.51-14.841-3.774-16.966-11.679-1.751-6.596-6.154-8.534-11.849-8.755-10.285-.374-20.332-2.72-30.243-4.794-20.434-4.301-41.021-7.922-61.319-12.886-5.729-1.394-11.05.51-16.541.697-7.65.238-13.566 2.618-18.921 8.075-4.131 4.233-8.33 8.942-14.858 9.741.136-4.199-1.564-8.228-1.105-12.444h-.017Zm289.238 326.06v.952h7.123c2.397.017 5.134.306 5.049-3.23-.085-3.366-2.805-2.89-4.964-2.839-18.87.425-37.74-.884-56.576-2.04-3.604-.204-7.344-.408-10.88-1.088-13.77-2.618-27.71-3.927-41.65-4.93-12.631-.901-24.14 3.349-35.173 9.18-9.299 4.896-18.632 9.792-29.308 11.05-2.414.272-4.182.935-3.74 3.706.408 2.72 2.431 2.244 4.454 2.04 12.818-1.309 24.021-7.14 34.986-13.158 12.172-6.681 24.888-7.956 38.199-6.171 18.802 2.516 37.621 5.168 56.559 6.426 11.917.765 23.936.102 35.921.102Z"/><path fill="url(#c)" d="M707.37 397.511c-12.903-4.777-25.228-10.846-37.808-16.354-12.58-5.474-25.092-11.186-37.655-16.779-1.7-1.071-3.57-1.156-5.525-1.19-4.896-.068-9.707.918-14.552.952-19.686.136-39.27 2.023-58.888 3.026-26.265 1.309-52.479 3.349-78.727 5.032-18.87 1.224-37.757 2.38-56.644 3.502-27.744 1.615-55.505 2.924-83.249 4.811-11.271.765-22.627.612-33.779 3.451-23.052 5.865-46.716 8.976-69.683 15.3-11.135 3.06-22.848 2.89-33.864 6.494-4.777 1.564-9.622 3.315-14.62 3.162-9.146-.272-16.949 3.604-24.803 7.276a13.43 13.43 0 0 0-8.211 12.58c-.136 11.815-.17 23.613-.289 35.411-.051 5.814-.629 11.543-3.4 16.796-3.74 1.275-6.494 0-8.245-3.417-1.462-2.89-3.128-5.746-4.029-8.84-2.448-8.177-8.738-9.656-15.64-7.446-23.494 7.48-47.192 14.229-70.839 21.165-7.208 2.108-14.348 4.522-21.607 6.341-5.304 1.309-10.727 2.975-15.946-1.088-9.52-7.429-9.248-23.069 1.088-29.58 20.23-12.716 40.715-24.99 60.928-37.706 7.684-4.811 15.555-9.333 23.409-13.77 8.942-5.1 10.2-12.359 8.891-20.944-2.38-15.538-5.576-30.94-7.616-46.529a551.307 551.307 0 0 0-4.709-31.11c-2.771-14.586-3.961-29.376-6.562-43.928a1090.417 1090.417 0 0 1-7.14-45.22c-2.159-15.793-5.61-31.875-1.462-48.11 2.278-8.891 6.392-16.864 10.625-24.837 4.182-6.069 8.143-12.325 13.515-17.425 9.01-8.517 19.482-15.113 29.954-21.522 30.43-18.7 61.625-36.108 92.956-53.244 26.35-14.416 52.666-28.968 81.158-38.93 14.909-5.202 30.192-8.67 45.951-10.506a245.668 245.668 0 0 1 42.806-1.65c17.969 1.038 35.734 3.91 53.397 7.379 13.702 2.686 27.353 5.814 40.936 9.095 21.93 5.304 43.044 13.124 64.09 21.3 9.061 3.537 18.53 6.29 26.741 11.459 18.19 11.458 34.748 24.854 46.172 43.52 3.638 5.95 5.899 12.614 8.432 19.091 12.206 31.331 22.78 63.189 33.218 95.132a563.995 563.995 0 0 1 17.782 68.782c2.346 12.155 5.151 24.259 7.514 36.431.306 1.53 1.36 2.584 1.717 3.995-.765 5.814 1.207 11.288 2.278 16.813 3.927 20.502 8.16 40.936 12.274 61.404-.119.17-.238.306-.34.425Z"/><path fill="url(#d)" d="M147.152 493.102c6.545-.799 10.727-5.491 14.875-9.741 5.355-5.44 11.254-7.837 18.921-8.075 5.474-.17 10.812-2.091 16.541-.68 20.281 4.93 40.885 8.568 61.302 12.869 9.928 2.108 19.958 4.42 30.26 4.794 5.695.221 10.098 2.159 11.849 8.755 2.108 7.905 8.84 12.189 16.966 11.679 2.856-.17 5.525.646 8.228 1.02 13.43 1.887 25.84-2.414 38.42-5.729 4.284-1.139 6.46-4.76 6.409-9.316-.051-7.361 3.145-11.543 10.387-12.461 29.835-3.791 58.82-11.696 88.06-18.275 6.443-1.462 12.835-3.128 19.601-3.366 7.565-.272 14.348 1.071 20.383 5.746l.799.391c-.123-.27-.254-.536-.391-.799-2.72-6.579-2.346-6.46 4.76-7.208 8.364-.85 14.671 1.819 20.315 7.871 4.012 4.301 8.84 7.854 13.175 11.9 1.904 1.819 3.4 4.08 5.372 6.494-3.06 1.139-5.899 1.411-8.772 1.989 9.163 2.04 18.496 1.938 27.88 2.669-14.688-6.868-26.571-16.881-36.805-29.75 7.769-1.802 15.436-2.38 21.267 3.026 7.14 6.596 14.705 12.614 21.93 19.04 4.76 4.233 4.42 4.59-1.853 6.256-.867.238-1.802.255-1.989 1.802 7.004.595 13.974 1.428 20.961 1.768 6.97.34 13.906.646 20.57 2.771 7.089 2.244 8.279 4.658 8.228 11.356-.068 7.701-.255 15.402-.323 23.12-.068 6.698-1.224 12.359-8.738 14.943-3.111 1.054-4.488 3.995-4.335 8.058.17 4.42-1.836 8.823-2.55 13.311-3.332 21.046-8.551 41.684-14.076 62.22-3.74 13.821-9.35 26.792-21.641 35.598-9.486 6.766-20.4 9.384-31.603 10.319-28.798 2.38-57.681 2.006-86.547 1.513-13.685-.238-27.353-1.122-40.8-4.386-8.16-1.972-13.685-6.613-18.632-13.175-18.139-24.14-30.192-51.136-38.896-79.866a133.316 133.316 0 0 0-10.421-25.483c-2.295-4.182-5.491-7.956-10.2-9.333-8.585-2.516-14.79.204-17.646 10.285-3.621 12.818-5.916 25.959-9.69 38.726a245.33 245.33 0 0 1-22.61 53.533c-5.644 9.775-13.549 14.059-24.701 14.11-17 .085-33.83-1.972-50.745-3.196-13.566-.969-27.03-2.941-40.562-3.961-5.491-2.924-11.713-3.604-17.459-5.797-14.059-5.372-21.828-15.334-24.378-30.056-3.4-19.737-7.106-39.44-10.778-59.126a283.11 283.11 0 0 0-3.519-15.742 10.647 10.647 0 0 0-5.066-6.885c-2.907-1.7-4.131-3.961-3.978-7.565.323-7.395.374-14.841-.051-22.219-.255-4.131 1.87-4.93 5.015-5.627 8.483-1.887 17.323-1.768 25.602-4.539 4.131-1.326 8.704-1.87 11.679-5.576Z"/><path fill="url(#e)" d="M182.869 771.188c3.689-.153 5.712 1.938 6.834 5.202 7.786 22.78 19.907 43.146 33.218 63.053 9.197 13.77 20.026 26.214 30.192 39.219 3.468 4.42 8.67 6.239 14.28 8.007 8.874 2.822 17.952 4.641 26.826 7.31 9.605 2.89 12.002 1.819 17.051-6.732 1.785-3.06 3.655-6.086 6.188-8.67 8.5-8.67 18.445-9.01 27.54-.901 4.845 4.352 8.704 9.69 14.042 13.583 6.052 4.42 12.835 6.97 20.162 7.344 23.851 1.156 47.226-1.53 69.581-10.285 20.74-8.126 42.126-15.215 60.588-28.118 15.64-10.948 30.549-22.967 45.747-34.544 8.262-6.29 16.167-13.056 24.769-18.819 8.959-5.984 14.45-13.991 18.241-23.851a15475.417 15475.417 0 0 1 43.384-111.911c2.601-6.63 1.734-13.6 2.89-20.366 3.213-18.819 6.035-37.74 8.721-56.627 1.955-13.77 3.383-27.642 6.562-41.191 1.972-8.432 1.955-8.432 10.574-8.772 10.336 2.941 10.812 3.638 7.497 14.705-8.041 26.809-16.83 53.38-25.619 79.985l-5.559 16.694c2.448-.578 2.533-2.414 3.23-3.689 2.21-4.199 4.318-8.432 6.528-12.631.459-.884 1.02-2.21 2.159-1.972 1.445.289 1.19 1.819 1.275 2.958 1.632 17.765.255 35.547-.255 53.278-.629 21.08-.697 42.126-.765 63.206-.051 14.348 1.955 28.475 4.386 42.585 1.7 9.809-1.275 18.887-5.78 27.387-8.67 16.354-16.728 33.15-27.71 48.042-9.945 13.447-18.292 28.271-31.178 39.474-10.54 9.146-22.049 16.881-33.898 24.055-15.3 9.282-29.07 20.74-43.588 31.076-9.35 6.664-18.19 14.144-28.73 18.989-7.106 3.264-14.875 4.199-22.083 7.191-22.117 9.218-44.455 17.938-66.64 26.958-12.308 5-24.854 9.35-38.08 10.51-8.177.71-16.133-2.21-23.8-5.13-9.248-3.51-17.391-8.84-25.568-14.35-13.226-8.86-27.676-15.812-40.919-24.72a66.4 66.4 0 0 1-24.259-29.002 1470.096 1470.096 0 0 0-29.937-63.648c-.578-1.156-.918-2.516-2.499-2.907-4.658-1.122-6.579-4.93-8.942-8.619-7.259-11.407-9.86-24.888-16.694-36.448-1.53-2.55-3.213-4.981-4.811-7.463-3.604-5.576-6.494-11.577-5.678-18.326 1.156-9.69-2.635-18.7-3.094-28.135-.272-5.899-1.02-11.764-1.258-17.663-.187-3.128 1.224-5.389 4.879-5.321ZM629.68 414.12a9.52 9.52 0 0 1-2.924-7.14c-.17-9.163.629-18.275 1.02-27.404a9.567 9.567 0 0 1 3.978-7.582c9.639 1.479 18.156 6.154 27.081 9.622 14.076 5.44 27.778 11.832 41.99 16.864 7.735 2.754 10.54 7.905 11.169 15.13.561 6.494.68 13.005 1.122 19.516.187 2.975-.51 3.4-3.502 2.55-25.16-7.106-50.388-14.008-75.599-20.91-1.394-.391-2.89-.442-4.335-.646Zm1.53 40.8c-5.712-9.945-4.097-20.944-4.403-31.671-.051-1.938 1.343-1.989 2.72-2.091 12.784.68 24.956 4.335 37.162 7.769a486.572 486.572 0 0 1 42.84 14.28c3.74 1.462 5.134 3.689 5.287 7.106.289 6.222.17 12.41-.459 18.615-.425 4.08-2.142 4.488-5.44 3.74-10.795-2.482-21.624-4.828-32.419-7.276-15.096-3.451-30.192-6.97-45.288-10.472Zm12.291 41.038c-1.122-.34-1.53-1.207-1.802-2.278l-8.551-31.586c3.995-2.142 7.871-.204 11.577.68 20.451 4.811 40.8 9.894 61.2 14.858 7.293 1.768 7.31 1.7 7.276 9.248-.034 8.296.017 16.609-.085 24.922-.085 6.29-2.346 7.922-8.058 5.372-19.38-8.602-39.882-14.008-59.653-21.573-.714-.238-1.36-.442-1.904.357Zm26.078 44.557c-5.457-3.587-11.441-1.989-17.136-1.309-5.678.68-11.22 2.38-16.83 3.638-4.794 1.088-8.432-1.224-8.585-6.188-.306-9.452-.102-18.938-.204-28.39-.034-2.601 1.394-1.955 2.873-1.632a3207.834 3207.834 0 0 0 22.899 4.93c1.139.255 2.329.34 3.485.459 16.269 4.777 32.504 9.656 48.807 14.263 3.876 1.088 4.182 2.499 2.176 5.712-4.59 7.395-14.79 12.104-23.256 10.149a51.983 51.983 0 0 0-14.229-1.632Z"/><path fill="url(#f)" d="M684.556 592.756c1.241 9.197 2.822 17.935 7.089 26.01 2.431 4.59 5.236 8.993 9.214 12.342a11.046 11.046 0 0 1 4.08 8.891c.119 9.333.102 18.666.119 27.999a7.908 7.908 0 0 1-3.4 6.46c-8.415 6.409-16.881 12.75-25.33 19.125-1.105.85-2.261 1.768-3.553.765-1.224-.952-1.564-2.448-1.173-4.012.68-2.788 2.601-4.556 4.913-6.052 12.954-8.33 19.074-20.06 17.986-35.632-.493-7.225-3.451-12.699-9.537-16.558-9.435-5.95-11.084-10.999-7.14-21.284 2.312-5.984 4.488-12.019 6.732-18.054Zm11.407-20.4c2.193-4.42 5.44-7.259 8.5-10.217 3.077-2.975 6.29-5.848 9.418-8.772 3.451-3.23 5.151-2.346 8.109 1.122 6.562 7.769 5.627 16.031 3.791 25.024-2.312 11.135-3.757 22.44-5.61 33.694a2.006 2.006 0 0 1-1.054 1.479v-43.112c0-5.593-.272-5.746-5.78-4.522-3.366.748-6.392 2.312-9.588 3.485-2.278.833-4.556 1.972-7.786 1.819Zm-260.474 234.43c-11.985 0-24.004.663-35.921-.136-18.938-1.258-37.74-3.91-56.559-6.426-13.311-1.768-26.01-.51-38.199 6.171-10.965 6.001-22.168 11.849-34.986 13.158-2.04.221-4.046.697-4.454-2.04-.408-2.771 1.36-3.417 3.74-3.706 10.676-1.258 20.009-6.154 29.308-11.05 11.033-5.814 22.542-10.064 35.19-9.18 13.94 1.003 27.863 2.329 41.65 4.93 3.519.68 7.259.85 10.88 1.105 18.462 1.122 37.026 2.465 56.559 2.023 2.159-.051 4.896-.51 4.964 2.839.085 3.536-2.652 3.247-5.049 3.23h-7.123v-.918Z"/></g></g><defs><linearGradient id="c" x1="0" x2="180.387" y1="0" y2="1021.12" gradientUnits="userSpaceOnUse"><stop stop-color="#195CC0"/><stop offset="1" stop-color="#B51A77"/></linearGradient><linearGradient id="d" x1="0" x2="180.387" y1="0" y2="1021.12" gradientUnits="userSpaceOnUse"><stop stop-color="#195CC0"/><stop offset="1" stop-color="#B51A77"/></linearGradient><linearGradient id="e" x1="0" x2="180.387" y1="0" y2="1021.12" gradientUnits="userSpaceOnUse"><stop stop-color="#195CC0"/><stop offset="1" stop-color="#B51A77"/></linearGradient><linearGradient id="f" x1="0" x2="180.404" y1="0" y2="1021.12" gradientUnits="userSpaceOnUse"><stop stop-color="#195CC0"/><stop offset="1" stop-color="#B51A77"/></linearGradient><clipPath id="a"><path fill="#fff" d="M0 0h731v1037H0z"/></clipPath></defs></svg>